<svg width="130" height="130" viewBox="0 0 130 130" fill="none" xmlns="http://www.w3.org/2000/svg">
<rect x="43" width="87" height="87" fill="#0D9AFF"/>
<rect y="87" width="43" height="43" fill="#0D9AFF"/>
<path d="M53.88 55.052H59.496V80H53.88V55.052ZM79.5986 80C78.9026 78.608 78.1346 77.204 77.2946 75.788C76.4786 74.348 75.5306 72.884 74.4506 71.396C74.1146 71.828 73.6826 72.428 73.1546 73.196C72.6506 73.964 72.1346 74.78 71.6066 75.644C71.1026 76.508 70.6226 77.336 70.1666 78.128C69.7106 78.92 69.3746 79.544 69.1586 80H62.7506C63.8066 78.056 65.0306 76.016 66.4226 73.88C67.8386 71.744 69.4106 69.476 71.1386 67.076L63.1106 55.052H69.9146L74.7746 62.828L79.5266 55.052H85.9346L78.0146 67.148C80.0306 69.764 81.7226 72.188 83.0906 74.42C84.4586 76.628 85.5386 78.488 86.3306 80H79.5986ZM89.5636 55.052H95.1796V80H89.5636V55.052ZM112.33 80.504C108.274 80.504 105.178 79.376 103.042 77.12C100.93 74.864 99.8742 71.66 99.8742 67.508C99.8742 65.444 100.198 63.608 100.846 62C101.494 60.368 102.382 59 103.51 57.896C104.638 56.768 105.982 55.916 107.542 55.34C109.102 54.764 110.794 54.476 112.618 54.476C113.674 54.476 114.634 54.56 115.498 54.728C116.362 54.872 117.118 55.052 117.766 55.268C118.414 55.46 118.954 55.664 119.386 55.88C119.818 56.096 120.13 56.264 120.322 56.384L118.702 60.92C117.934 60.512 117.034 60.164 116.002 59.876C114.994 59.588 113.842 59.444 112.546 59.444C111.682 59.444 110.83 59.588 109.99 59.876C109.174 60.164 108.442 60.632 107.794 61.28C107.17 61.904 106.666 62.72 106.282 63.728C105.898 64.736 105.706 65.96 105.706 67.4C105.706 68.552 105.826 69.632 106.066 70.64C106.33 71.624 106.738 72.476 107.29 73.196C107.866 73.916 108.61 74.492 109.522 74.924C110.434 75.332 111.538 75.536 112.834 75.536C113.65 75.536 114.382 75.488 115.03 75.392C115.678 75.296 116.254 75.188 116.758 75.068C117.262 74.924 117.706 74.768 118.09 74.6C118.474 74.432 118.822 74.276 119.134 74.132L120.682 78.632C119.89 79.112 118.774 79.544 117.334 79.928C115.894 80.312 114.226 80.504 112.33 80.504Z" fill="#12131A"/>
</svg>
